{"title":"Nautanki saala 2013 untouched hd cam (ICTV) - Hindi","uid":8367105,"size":667541504,"categoryP":"video","categoryS":"movies","magnet":"?xt=urn:btih:57329fdb26b42f6024c8ad30ce18b5d69affb1f7&amp;dn=Nautanki+saala+2013+untouched+hd+cam+%28ICTV%29+-+Hindi&amp;tr=udp%3A%2F%2Ftracker.openbittorrent.com%3A80&amp;tr=udp%3A%2F%2Fopen.demonii.com%3A1337&amp;tr=udp%3A%2F%2Ftracker.coppersurfer.tk%3A6969&amp;tr=udp%3A%2F%2Fexodus.desync.com%3A6969","seeders":1,"leechers":0,"uploader":"SJonam","files":7,"time":1365800270,"description":" &lt;a href=&quot;http://desibbrg.org/images/66952052392581364616.gif&quot; rel=&quot;nofollow&quot; target=&quot;_NEW&quot;&gt;http://desibbrg.org/images/66952052392581364616.gif&lt;/a&gt; &lt;a href=&quot;\nhttp://desibbrg.org/images/36710372553964349374.jpg&quot; rel=&quot;nofollow&quot; target=&quot;_NEW&quot;&gt;\nhttp://desibbrg.org/images/36710372553964349374.jpg&lt;/a&gt; &lt;a href=&quot;\nhttp://desibbrg.org/images/25088911705459566831.jpg&quot; rel=&quot;nofollow&quot; target=&quot;_NEW&quot;&gt;\nhttp://desibbrg.org/images/25088911705459566831.jpg&lt;/a&gt; &lt;a href=&quot;\nhttp://desibbrg.org/images/11590382455813859169.jpg&quot; rel=&quot;nofollow&quot; target=&quot;_NEW&quot;&gt;\nhttp://desibbrg.org/images/11590382455813859169.jpg&lt;/a&gt; &lt;a href=&quot;\nhttp://desibbrg.org/images/42183770026929690656.jpg&quot; rel=&quot;nofollow&quot; target=&quot;_NEW&quot;&gt;\nhttp://desibbrg.org/images/42183770026929690656.jpg&lt;/a&gt; &lt;a href=&quot;\nhttp://desibbrg.org/images/45232798081485859153.jpg&quot; rel=&quot;nofollow&quot; target=&quot;_NEW&quot;&gt;\nhttp://desibbrg.org/images/45232798081485859153.jpg&lt;/a&gt;\n\nMedia Info - \nVideo\nID : 224 (0xE0)\nFormat : MPEG Video\nFormat version : Version 2\nFormat profile : Main@Main\nFormat settings, BVOP : Yes\nFormat settings, Matrix : Default\nDuration : 1h 49mn\nBit rate mode : Variable\nBit rate : 667 Kbps\nMaximum bit rate : 9 672 Kbps\nWidth : 352 pixels\nHeight : 288 pixels\nDisplay aspect ratio : 4:3\nFrame rate : 25.000 fps\nStandard : PAL\nColor space : YUV\nChroma subsampling : 4:2:0\nBit depth : 8 bits\nScan type : Progressive\nCompression mode : Lossy\nBits/(Pixel*Frame) : 0.263\nStream size : 523 MiB (82%)\n\nAudio\nID : 192 (0xC0)\nFormat : MPEG Audio\nFormat version : Version 1\nFormat profile : Layer 2\nDuration : 1h 49mn\nBit rate mode : Constant\nBit rate : 128 Kbps\nChannel(s) : 2 channels\nSampling rate : 48.0 KHz\nCompression mode : Lossy\nDelay relative to video : -600ms\nStream size : 100 MiB (16%)\n\nSharer : TJ_DA_KING\n\nSeeding 24x7... Extreme Seeding...\n\n\nEnjoy!\n","torrent":{"xt":"urn:btih:57329fdb26b42f6024c8ad30ce18b5d69affb1f7","amp;dn":"Nautanki+saala+2013+untouched+hd+cam+%28ICTV%29+-+Hindi","amp;tr":["udp%3A%2F%2Ftracker.openbittorrent.com%3A80","udp%3A%2F%2Fopen.demonii.com%3A1337","udp%3A%2F%2Ftracker.coppersurfer.tk%3A6969","udp%3A%2F%2Fexodus.desync.com%3A6969"],"infoHash":"57329fdb26b42f6024c8ad30ce18b5d69affb1f7","infoHashBuffer":{"type":"Buffer","data":[87,50,159,219,38,180,47,96,36,200,173,48,206,24,181,214,154,255,177,247]},"announce":[],"urlList":[]}}